<?xml version="1.0" standalone="no"?><!DOCTYPE svg PUBLIC "-//W3C//DTD SVG 1.1//EN" "http://www.w3.org/Graphics/SVG/1.1/DTD/svg11.dtd"><svg t="1688538836607" class="icon" viewBox="0 0 1024 1024" version="1.1" xmlns="http://www.w3.org/2000/svg" p-id="1204" xmlns:xlink="http://www.w3.org/1999/xlink" width="200" height="200"><path d="M513.3 147c5 0 9.7 1.4 13.4 4.1l10.2 7.3 335.3 240.1c3.7 2.6 5.8 6.1 5.8 9.5v456.6c0 6.4-7.9 13.6-19.2 13.6H167.2c-11.3 0-19.2-7.2-19.2-13.6V408.1c0-3.4 2.1-6.9 5.8-9.6L500 151.1c3.6-2.6 8.4-4.1 13.3-4.1m0-50c-15 0-30 4.5-42.5 13.4L124.7 357.9c-16.9 12-26.7 30.6-26.7 50.2v456.6c0 35.1 31 63.6 69.2 63.6h691.7c38.2 0 69.2-28.5 69.2-63.6V408c0-19.6-9.8-38.1-26.7-50.2L555.8 110.5c-12.5-9-27.5-13.5-42.5-13.5z" fill="#2D6DFF" p-id="1205"></path><path d="M628.5 685.2H396.1c-13.8 0-25 11.2-25 25s11.2 25 25 25h232.5c13.8 0 25-11.2 25-25-0.1-13.8-11.3-25-25.1-25z" fill="#2D6DFF" p-id="1206"></path></svg>